<svg xmlns="http://www.w3.org/2000/svg" width="1280" height="800" viewBox="0 0 1280 800">
  <rect width="1280" height="800" fill="#f8fafc"/>
  <rect x="0" y="0" width="1280" height="800" fill="#ffffff"/>

  <g transform="translate(72 64)">
    <rect x="0" y="0" width="1136" height="672" rx="18" fill="#f8fafc" stroke="#d7dde7" stroke-width="2"/>
    <rect x="0" y="0" width="1136" height="54" rx="18" fill="#eef2f7"/>
    <circle cx="28" cy="27" r="7" fill="#ef4444"/>
    <circle cx="52" cy="27" r="7" fill="#f59e0b"/>
    <circle cx="76" cy="27" r="7" fill="#22c55e"/>
    <rect x="112" y="14" width="676" height="26" rx="13" fill="#ffffff" stroke="#d8dee8"/>
    <text x="136" y="32" font-family="-apple-system,BlinkMacSystemFont,'Segoe UI',sans-serif" font-size="13" fill="#64748b">chat.deepseek.com</text>

    <g transform="translate(36 88)">
      <rect x="0" y="0" width="720" height="520" rx="14" fill="#ffffff" stroke="#e1e7ef"/>
      <text x="36" y="58" font-family="-apple-system,BlinkMacSystemFont,'Segoe UI',sans-serif" font-size="30" font-weight="700" fill="#111827">DeepSeek 会话完成</text>
      <text x="36" y="92" font-family="-apple-system,BlinkMacSystemFont,'Segoe UI',sans-serif" font-size="16" fill="#64748b">Murmur 自动识别 AI 工具使用，并把真实收益记录到本地账本。</text>

      <rect x="36" y="132" width="648" height="78" rx="12" fill="#eef6ff" stroke="#bfdbfe"/>
      <text x="60" y="164" font-family="-apple-system,BlinkMacSystemFont,'Segoe UI',sans-serif" font-size="15" font-weight="600" fill="#1d4ed8">今日 AI 净收益</text>
      <text x="60" y="195" font-family="-apple-system,BlinkMacSystemFont,'Segoe UI',sans-serif" font-size="32" font-weight="800" fill="#0f172a">+42 分钟</text>
      <text x="260" y="164" font-family="-apple-system,BlinkMacSystemFont,'Segoe UI',sans-serif" font-size="15" font-weight="600" fill="#1d4ed8">已记录</text>
      <text x="260" y="195" font-family="-apple-system,BlinkMacSystemFont,'Segoe UI',sans-serif" font-size="32" font-weight="800" fill="#0f172a">6 次</text>
      <text x="430" y="164" font-family="-apple-system,BlinkMacSystemFont,'Segoe UI',sans-serif" font-size="15" font-weight="600" fill="#1d4ed8">疲劳指数</text>
      <text x="430" y="195" font-family="-apple-system,BlinkMacSystemFont,'Segoe UI',sans-serif" font-size="32" font-weight="800" fill="#0f172a">38 / 100</text>

      <text x="36" y="260" font-family="-apple-system,BlinkMacSystemFont,'Segoe UI',sans-serif" font-size="20" font-weight="700" fill="#111827">补全一次 AI 使用</text>
      <g transform="translate(36 282)">
        <rect x="0" y="0" width="300" height="54" rx="10" fill="#f8fafc" stroke="#dbe3ec"/>
        <text x="16" y="21" font-family="-apple-system,BlinkMacSystemFont,'Segoe UI',sans-serif" font-size="12" fill="#64748b">估计节省</text>
        <text x="16" y="43" font-family="-apple-system,BlinkMacSystemFont,'Segoe UI',sans-serif" font-size="20" font-weight="700" fill="#111827">30 分钟</text>
        <rect x="326" y="0" width="154" height="54" rx="10" fill="#f8fafc" stroke="#dbe3ec"/>
        <text x="342" y="21" font-family="-apple-system,BlinkMacSystemFont,'Segoe UI',sans-serif" font-size="12" fill="#64748b">Prompt</text>
        <text x="342" y="43" font-family="-apple-system,BlinkMacSystemFont,'Segoe UI',sans-serif" font-size="20" font-weight="700" fill="#111827">5 分钟</text>
        <rect x="506" y="0" width="142" height="54" rx="10" fill="#f8fafc" stroke="#dbe3ec"/>
        <text x="522" y="21" font-family="-apple-system,BlinkMacSystemFont,'Segoe UI',sans-serif" font-size="12" fill="#64748b">返工</text>
        <text x="522" y="43" font-family="-apple-system,BlinkMacSystemFont,'Segoe UI',sans-serif" font-size="20" font-weight="700" fill="#111827">0 分钟</text>
      </g>
      <g transform="translate(36 354)">
        <rect x="0" y="0" width="204" height="54" rx="10" fill="#f8fafc" stroke="#dbe3ec"/>
        <text x="16" y="21" font-family="-apple-system,BlinkMacSystemFont,'Segoe UI',sans-serif" font-size="12" fill="#64748b">结果质量</text>
        <text x="16" y="43" font-family="-apple-system,BlinkMacSystemFont,'Segoe UI',sans-serif" font-size="18" font-weight="700" fill="#111827">小改后可用</text>
        <rect x="228" y="0" width="204" height="54" rx="10" fill="#f8fafc" stroke="#dbe3ec"/>
        <text x="244" y="21" font-family="-apple-system,BlinkMacSystemFont,'Segoe UI',sans-serif" font-size="12" fill="#64748b">使用感受</text>
        <text x="244" y="43" font-family="-apple-system,BlinkMacSystemFont,'Segoe UI',sans-serif" font-size="18" font-weight="700" fill="#111827">中性</text>
        <rect x="456" y="0" width="192" height="54" rx="10" fill="#4f46e5"/>
        <text x="516" y="35" font-family="-apple-system,BlinkMacSystemFont,'Segoe UI',sans-serif" font-size="18" font-weight="700" fill="#ffffff">保存记录</text>
      </g>

      <rect x="36" y="442" width="648" height="1" fill="#e5eaf1"/>
      <text x="36" y="482" font-family="-apple-system,BlinkMacSystemFont,'Segoe UI',sans-serif" font-size="15" fill="#64748b">数据只保存在浏览器本地，不读取 prompt，不上传服务器。</text>
    </g>

    <g transform="translate(820 88)">
      <rect x="0" y="0" width="270" height="520" rx="18" fill="#111827"/>
      <rect x="18" y="18" width="234" height="484" rx="14" fill="#ffffff"/>
      <text x="40" y="60" font-family="-apple-system,BlinkMacSystemFont,'Segoe UI',sans-serif" font-size="24" font-weight="800" fill="#111827">Murmur</text>
      <rect x="40" y="88" width="190" height="34" rx="17" fill="#dcfce7"/>
      <circle cx="58" cy="105" r="6" fill="#22c55e"/>
      <text x="76" y="110" font-family="-apple-system,BlinkMacSystemFont,'Segoe UI',sans-serif" font-size="14" font-weight="700" fill="#166534">AI 网站 · 使用中</text>
      <text x="40" y="154" font-family="-apple-system,BlinkMacSystemFont,'Segoe UI',sans-serif" font-size="13" fill="#64748b">DeepSeek</text>
      <text x="40" y="178" font-family="-apple-system,BlinkMacSystemFont,'Segoe UI',sans-serif" font-size="16" font-weight="700" fill="#111827">chat.deepseek.com</text>
      <rect x="40" y="210" width="190" height="72" rx="12" fill="#eef6ff"/>
      <text x="78" y="255" font-family="-apple-system,BlinkMacSystemFont,'Segoe UI',sans-serif" font-size="28" font-weight="800" fill="#1d4ed8">00:12:36</text>
      <rect x="40" y="312" width="190" height="42" rx="10" fill="#4f46e5"/>
      <text x="98" y="338" font-family="-apple-system,BlinkMacSystemFont,'Segoe UI',sans-serif" font-size="15" font-weight="700" fill="#ffffff">完成会话</text>
      <rect x="40" y="370" width="88" height="42" rx="10" fill="#f1f5f9"/>
      <text x="58" y="396" font-family="-apple-system,BlinkMacSystemFont,'Segoe UI',sans-serif" font-size="13" font-weight="700" fill="#334155">暂停</text>
      <rect x="142" y="370" width="88" height="42" rx="10" fill="#fee2e2"/>
      <text x="160" y="396" font-family="-apple-system,BlinkMacSystemFont,'Segoe UI',sans-serif" font-size="13" font-weight="700" fill="#991b1b">忽略</text>
      <text x="40" y="458" font-family="-apple-system,BlinkMacSystemFont,'Segoe UI',sans-serif" font-size="12" fill="#94a3b8">今日已记录 6 次</text>
    </g>
  </g>
</svg>
