<svg xmlns="http://www.w3.org/2000/svg" width="128" height="128" viewBox="0 0 128 128">
  <defs>
    <linearGradient id="paper" x1="26" y1="16" x2="103" y2="113" gradientUnits="userSpaceOnUse">
      <stop offset="0" stop-color="#fbfbf7"/>
      <stop offset="1" stop-color="#ece9df"/>
    </linearGradient>
    <linearGradient id="ink" x1="24" y1="26" x2="98" y2="98" gradientUnits="userSpaceOnUse">
      <stop offset="0" stop-color="#111827"/>
      <stop offset="0.55" stop-color="#4f46e5"/>
      <stop offset="1" stop-color="#0f766e"/>
    </linearGradient>
    <radialGradient id="halo" cx="35%" cy="30%" r="70%">
      <stop offset="0" stop-color="#eef2ff"/>
      <stop offset="0.55" stop-color="#f8fafc"/>
      <stop offset="1" stop-color="#e5e7eb"/>
    </radialGradient>
  </defs>

  <rect width="128" height="128" fill="#ffffff"/>
  <rect x="10" y="10" width="108" height="108" rx="30" fill="url(#halo)"/>
  <rect x="24" y="19" width="80" height="90" rx="28" fill="url(#paper)"/>

  <path d="M36 50C45 36 54 36 63 50C72 64 81 64 92 50"
        fill="none" stroke="url(#ink)" stroke-width="7.5" stroke-linecap="round"/>
  <path d="M36 66C45 52 54 52 63 66C72 80 81 80 92 66"
        fill="none" stroke="url(#ink)" stroke-width="7.5" stroke-linecap="round" opacity="0.82"/>
  <path d="M36 82C45 68 54 68 63 82C72 96 81 96 92 82"
        fill="none" stroke="url(#ink)" stroke-width="7.5" stroke-linecap="round" opacity="0.58"/>

  <circle cx="64" cy="29" r="3.2" fill="#4f46e5"/>
  <circle cx="64" cy="99" r="3.2" fill="#0f766e" opacity="0.82"/>
</svg>
